<?xml version="1.0" encoding="UTF-8"?>
<!DOCTYPE svg PUBLIC "-//W3C//DTD SVG 1.1//EN" "http://www.w3.org/Graphics/SVG/1.1/DTD/svg11.dtd">
<!-- Creator: CorelDRAW X8 -->
<svg xmlns="http://www.w3.org/2000/svg" xml:space="preserve" width="8.26772in" height="11.6929in" version="1.1" style="shape-rendering:geometricPrecision; text-rendering:geometricPrecision; image-rendering:optimizeQuality; fill-rule:evenodd; clip-rule:evenodd"
viewBox="0 0 8268 11693"
 xmlns:xlink="http://www.w3.org/1999/xlink">
 <defs>
  <style type="text/css">
   <![CDATA[
    .str0 {stroke:black;stroke-width:7.87402}
    .str1 {stroke:#D39E4D;stroke-width:7.87402}
    .fil13 {fill:none}
    .fil22 {fill:#2470AC}
    .fil18 {fill:#2C8AD1}
    .fil20 {fill:#D09944}
    .fil15 {fill:#D09944}
    .fil12 {fill:#D39E4D}
    .fil11 {fill:#D09944;fill-opacity:0.949020}
    .fil1 {fill:url(#id10)}
    .fil8 {fill:url(#id11)}
    .fil9 {fill:url(#id12)}
    .fil2 {fill:url(#id13)}
    .fil5 {fill:url(#id14)}
    .fil25 {fill:url(#id15)}
    .fil6 {fill:url(#id16)}
    .fil24 {fill:url(#id17)}
    .fil4 {fill:url(#id18)}
    .fil28 {fill:url(#id19)}
    .fil10 {fill:url(#id20)}
    .fil19 {fill:url(#id21)}
    .fil27 {fill:url(#id22)}
    .fil23 {fill:url(#id23)}
    .fil29 {fill:url(#id24)}
    .fil26 {fill:url(#id25)}
    .fil7 {fill:url(#id26)}
    .fil0 {fill:url(#id27)}
    .fil21 {fill:url(#id28)}
    .fil16 {fill:url(#id29)}
    .fil17 {fill:url(#id30)}
    .fil3 {fill:url(#id31)}
    .fil14 {fill:url(#id32)}
   ]]>
  </style>
   <clipPath id="id0">
    <path d="M3075 6824l328 691c135,266 -391,328 -530,546 -111,175 -197,333 -244,509 -99,222 -132,344 -272,63 -120,-336 -107,-535 -96,-946 23,-236 24,-403 95,-706 31,-139 17,-277 161,-247l558 90z"/>
   </clipPath>
   <clipPath id="id1">
    <path d="M4882 7054l-1571 -214c-44,-13 -30,39 -19,56 418,940 96,806 1590,158z"/>
   </clipPath>
     <mask id="id2">
  <linearGradient id="id3" gradientUnits="userSpaceOnUse" x1="3509.58" y1="7409.89" x2="3492.58" y2="7408.56">
   <stop offset="0" style="stop-opacity:1; stop-color:white"/>
   <stop offset="1" style="stop-opacity:0; stop-color:white"/>
  </linearGradient>
      <rect style="fill:url(#id3)" x="3509" y="6539" width="703" height="1098"/>
     </mask>
   <clipPath id="id4">
    <path d="M4654 4878l232 1852c39,167 37,188 -170,162l-1479 -239c-1106,-179 -1322,88 703,-1375 86,-52 174,-104 265,-156 146,-82 296,-162 449,-244z"/>
   </clipPath>
   <clipPath id="id5">
    <path d="M4876 4846c1606,91 2189,-71 1717,537 -1878,2057 -1255,1821 -1717,-537z"/>
   </clipPath>
   <clipPath id="id6">
    <path d="M6772 2868l318 22c93,161 165,326 201,504 65,301 43,609 -38,934 -133,518 -68,294 -1654,297l-83 -310c308,-190 599,-400 818,-653 18,-23 36,-45 54,-66 102,-122 198,-225 336,-554 17,-52 27,-72 37,-127 13,-52 5,-22 11,-47z"/>
   </clipPath>
   <clipPath id="id7">
    <path d="M3124 4783l0 0 -123 418 112 -468 11 50zm-91 -396l80 346 11 50 -91 -396zm91 396l-11 -50 -80 -346c-133,86 -272,199 -395,324 -152,156 -279,331 -338,499 -12,23 -23,46 -34,70 -50,112 -86,230 -112,348 -40,178 -59,357 -76,524 -151,777 369,-293 571,-525 134,-155 244,-300 352,-426l112 -468 -80 -346 80 346 11 50zm0 0l-11 -50 -80 -346 91 396zm-11 -50l-112 468 112 -468z"/>
   </clipPath>
   <clipPath id="id8">
    <path d="M4337 3731c36,196 71,393 106,589 -108,24 -213,47 -283,90 -266,164 -331,227 -491,432 -92,118 -152,320 -183,198l0 0 0 0 -81 -328 -91 -365 -30 -120 30 120 91 365 1 -18 -112 -482 112 482 -112 -482c337,-408 447,-384 885,-485 41,0 100,2 158,4zm-931 963l-1 18 1 -18 80 346 0 0 0 0 0 0 0 0 0 0 -81 -328 1 -18 -112 -482c-5,7 3,60 20,135 47,218 156,626 172,693 0,0 0,0 0,0 0,0 0,0 0,0l0 0 0 0 0 0 -80 -346 -1 18 1 -18z"/>
   </clipPath>
   <clipPath id="id9">
    <path d="M4663 4201c146,-36 296,-73 382,-151 219,-143 248,-381 304,-873l-204 -77c-1,3 -1,5 -2,8 -16,39 -35,81 -55,127 -154,272 -152,305 -388,383 -296,26 -190,72 -37,583z"/>
   </clipPath>
  <linearGradient id="id10" gradientUnits="userSpaceOnUse" x1="4075.5" y1="9960.61" x2="3947.58" y2="10970.3">
   <stop offset="0" style="stop-opacity:1; stop-color:#292002"/>
   <stop offset="1" style="stop-opacity:1; stop-color:#584505"/>
  </linearGradient>
  <linearGradient id="id11" gradientUnits="userSpaceOnUse" x1="3774.89" y1="7139.38" x2="2447.28" y2="5551.4">
   <stop offset="0" style="stop-opacity:1; stop-color:#0A4069"/>
   <stop offset="0.988235" style="stop-opacity:1; stop-color:#206BA5"/>
   <stop offset="1" style="stop-opacity:1; stop-color:white"/>
  </linearGradient>
  <linearGradient id="id12" gradientUnits="userSpaceOnUse" x1="6196.39" y1="2564.33" x2="3812.75" y2="5399.39">
   <stop offset="0" style="stop-opacity:1; stop-color:#FE620C"/>
   <stop offset="1" style="stop-opacity:1; stop-color:#FFC004"/>
  </linearGradient>
  <linearGradient id="id13" gradientUnits="userSpaceOnUse" x1="3980.08" y1="9493.17" x2="3978.15" y2="10009.1">
   <stop offset="0" style="stop-opacity:1; stop-color:#5C4806"/>
   <stop offset="1" style="stop-opacity:1; stop-color:#453603"/>
  </linearGradient>
  <linearGradient id="id14" gradientUnits="userSpaceOnUse" x1="5627.3" y1="1869.58" x2="5456.23" y2="1872.4">
   <stop offset="0" style="stop-opacity:1; stop-color:#FF580B"/>
   <stop offset="1" style="stop-opacity:1; stop-color:#FF933A"/>
  </linearGradient>
  <linearGradient id="id15" gradientUnits="userSpaceOnUse" x1="2987.42" y1="7749.5" x2="6642.99" y2="7648.78">
   <stop offset="0" style="stop-opacity:1; stop-color:#FF8400"/>
   <stop offset="1" style="stop-opacity:1; stop-color:#FFFB00"/>
  </linearGradient>
  <linearGradient id="id16" gradientUnits="userSpaceOnUse" x1="5870.98" y1="6421.56" x2="5780.92" y2="6339.01">
   <stop offset="0" style="stop-opacity:1; stop-color:#FF580B"/>
   <stop offset="1" style="stop-opacity:1; stop-color:#F69B13"/>
  </linearGradient>
  <linearGradient id="id17" gradientUnits="userSpaceOnUse" x1="5385.82" y1="3406.83" x2="4473.77" y2="3837.06">
   <stop offset="0" style="stop-opacity:1; stop-color:#FFC20E"/>
   <stop offset="1" style="stop-opacity:1; stop-color:#FDD867"/>
  </linearGradient>
  <linearGradient id="id18" gradientUnits="userSpaceOnUse" x1="3660.22" y1="5820.68" x2="6136.86" y2="7044.44">
   <stop offset="0" style="stop-opacity:1; stop-color:#2270AB"/>
   <stop offset="1" style="stop-opacity:1; stop-color:#093E66"/>
  </linearGradient>
  <linearGradient id="id19" gradientUnits="userSpaceOnUse" xlink:href="#id16" x1="1673.06" y1="7035.69" x2="1553.55" y2="7044.17">
  </linearGradient>
  <linearGradient id="id20" gradientUnits="userSpaceOnUse" x1="2055.75" y1="7509.18" x2="3220.77" y2="8059.77">
   <stop offset="0" style="stop-opacity:1; stop-color:#FFBF00"/>
   <stop offset="1" style="stop-opacity:1; stop-color:#FCE49A"/>
  </linearGradient>
  <linearGradient id="id21" gradientUnits="userSpaceOnUse" xlink:href="#id20" x1="6088.11" y1="3378.42" x2="7410.53" y2="4185.53">
  </linearGradient>
  <linearGradient id="id22" gradientUnits="userSpaceOnUse" x1="1670.69" y1="7478.53" x2="2710" y2="7772.12">
   <stop offset="0" style="stop-opacity:1; stop-color:#FD6C0D"/>
   <stop offset="1" style="stop-opacity:1; stop-color:#F98B11"/>
  </linearGradient>
  <linearGradient id="id23" gradientUnits="userSpaceOnUse" xlink:href="#id17" x1="4433.78" y1="4051.12" x2="3251.2" y2="4590.02">
  </linearGradient>
  <linearGradient id="id24" gradientUnits="userSpaceOnUse" x1="1790.24" y1="5384.6" x2="2546.51" y2="5299.38">
   <stop offset="0" style="stop-opacity:1; stop-color:#FB7A0F"/>
   <stop offset="1" style="stop-opacity:1; stop-color:#FA8A0B"/>
  </linearGradient>
  <linearGradient id="id25" gradientUnits="userSpaceOnUse" x1="4060.35" y1="7407.76" x2="5859.74" y2="7226.6">
   <stop offset="0" style="stop-opacity:1; stop-color:#FE600C"/>
   <stop offset="1" style="stop-opacity:1; stop-color:#F79712"/>
  </linearGradient>
  <linearGradient id="id26" gradientUnits="userSpaceOnUse" xlink:href="#id16" x1="3440.1" y1="3640.14" x2="3330.67" y2="3573.53">
  </linearGradient>
  <linearGradient id="id27" gradientUnits="userSpaceOnUse" x1="5106.88" y1="3199.2" x2="4225.07" y2="3283.26">
   <stop offset="0" style="stop-opacity:1; stop-color:#FF580B"/>
   <stop offset="1" style="stop-opacity:1; stop-color:#FFAD4E"/>
  </linearGradient>
  <linearGradient id="id28" gradientUnits="userSpaceOnUse" xlink:href="#id17" x1="3383.88" y1="5301.51" x2="1690.97" y2="5487.15">
  </linearGradient>
  <linearGradient id="id29" gradientUnits="userSpaceOnUse" xlink:href="#id20" x1="3374.63" y1="5153.5" x2="5179.34" y2="6500.3">
  </linearGradient>
  <linearGradient id="id30" gradientUnits="userSpaceOnUse" xlink:href="#id20" x1="4588.03" y1="5316.04" x2="6084.25" y2="6233.29">
  </linearGradient>
  <linearGradient id="id31" gradientUnits="userSpaceOnUse" xlink:href="#id27" x1="2528.73" y1="7202.18" x2="3464.43" y2="7154.19">
  </linearGradient>
  <linearGradient id="id32" gradientUnits="userSpaceOnUse" xlink:href="#id20" x1="3266.28" y1="6875.29" x2="4547.2" y2="7625.86">
  </linearGradient>
 </defs>
 <g id="Layer_x0020_1">
  <metadata id="CorelCorpID_0Corel-Layer"/>
  <path class="fil0" d="M4349 3651c-17,-84 -10,-195 12,-308 18,-93 46,-187 78,-268 100,-208 134,-268 318,-417 87,-58 141,-100 225,-238 66,-109 91,-259 56,-403 24,65 97,183 82,311 -19,117 -52,239 -127,333 -49,78 -97,155 -140,231 -53,96 -112,193 -142,286 -62,168 -92,284 -124,509 -23,159 -40,221 -46,332 -2,37 -32,145 23,457 -16,-27 -82,-249 -110,-369 -40,-159 -33,-164 -60,-245 -23,-66 -39,-136 -45,-211z"/>
  <path class="fil1 str0" d="M1475 9963l5073 5c-2073,1365 -3293,1302 -5073,-5z"/>
  <polygon class="fil2" points="1182,10005 1176,9498 6782,9498 6782,10005 "/>
  <path class="fil3" d="M3397 7670c3,-123 -23,-277 -65,-430 -35,-126 -81,-252 -128,-357 -140,-265 -186,-341 -403,-500 -101,-58 -164,-103 -275,-274 -87,-136 -140,-340 -128,-551 -14,97 -69,283 -31,458 40,159 95,323 189,435 65,95 128,191 185,287 72,120 151,240 197,363 95,220 145,375 217,683 52,217 81,300 106,454 9,51 59,194 55,649 12,-43 43,-372 50,-548 14,-234 6,-240 21,-361 12,-99 17,-201 10,-308z"/>
  <path class="fil4" d="M2964 9281c-83,-391 -140,-761 -143,-1208 32,-250 40,-428 121,-744 168,-544 554,-965 1200,-1370 543,-331 1210,-637 1622,-1202 123,-192 228,-273 391,-768 18,-68 28,-93 38,-167 16,-80 3,-12 16,-84 10,-52 12,-111 16,-164 7,-92 -2,-179 -12,-265 -7,-55 -11,-112 -29,-164 62,100 105,180 158,285 173,383 321,757 375,1156 63,424 39,842 -44,1269 -95,299 -208,566 -375,812 -197,245 -415,456 -663,618 -250,141 -484,267 -755,354 -326,124 -650,217 -942,411 -224,149 -400,285 -543,501 -115,173 -204,331 -258,513 -52,162 -87,324 -93,491l-80 -274z"/>
  <path class="fil5" d="M5472 2034c-10,-23 -14,-54 -15,-87 0,-27 3,-54 8,-78 17,-61 24,-79 70,-127 22,-19 36,-32 53,-74 13,-32 12,-75 -7,-115 11,18 39,49 42,85 2,34 -1,69 -18,98 -10,23 -19,47 -28,69 -10,29 -22,58 -25,85 -9,49 -10,83 -6,147 2,46 15,88 20,119 2,9 10,42 -5,23 -6,-7 -17,-20 -20,-26 -15,-19 -30,-39 -43,-61 -10,-17 -20,-37 -26,-58z"/>
  <path class="fil6" d="M5621 6515c80,-77 125,-118 216,-162 39,-16 65,-29 127,-76 49,-37 100,-93 133,-151 -13,27 -29,77 -70,125 -39,44 -84,89 -131,120 -35,26 -77,54 -108,69 -35,17 -118,17 -260,181 -20,22 61,-77 93,-106z"/>
  <path class="fil7" d="M3110 3938c109,-165 169,-253 291,-377 52,-50 87,-86 171,-195 66,-87 135,-201 181,-307 -18,47 -41,131 -98,228 -53,89 -114,183 -177,259 -48,62 -103,130 -145,173 -47,47 -156,103 -350,434 -27,45 84,-152 127,-215z"/>
  <path class="fil8" d="M2067 6361c352,442 796,734 1015,1010 176,-373 740,-1091 1073,-1350 -462,118 -1164,-216 -1314,-701 -351,291 -479,766 -774,1041z"/>
  <path class="fil9" d="M4047 6020l-640 -111 361 -115c102,-189 203,-379 304,-568 81,-108 184,-189 296,-267 -101,100 -159,196 -202,305 -38,79 -40,158 -26,237 32,79 60,93 110,106l112 -46c10,-63 32,-121 43,-204 20,-168 20,-285 65,-420 84,-161 149,-247 283,-322 84,-32 170,-65 251,-96 97,-50 139,-108 176,-260 23,120 21,257 -75,314l-179 205c-92,166 32,495 85,661 -311,206 -642,387 -964,581zm853 -995c7,24 2,51 15,87 15,45 18,84 38,145 25,80 13,49 30,97 2,5 24,82 28,85l1238 -830 253 -145c27,-452 147,-838 81,-1356 -63,-264 -104,-526 -340,-809l-386 -355c138,217 242,424 263,651 72,274 79,574 6,812 -90,339 -206,606 -389,831l-837 787z"/>
  <path class="fil10" d="M3075 6824l328 691c135,266 -391,328 -530,546 -111,175 -197,333 -244,509 -99,222 -132,344 -272,63 -120,-336 -107,-535 -96,-946 23,-236 24,-403 95,-706 31,-139 17,-277 161,-247l558 90z"/>
  <g style="clip-path:url(#id0)">
   <g id="_2538357808288">
    <path id="1" class="fil11" d="M2613 8125l-35 114 -57 30 -15 -31c-3,-14 5,1 -6,-17l35 -71 51 -84 22 -94 25 -51 38 -36 20 -73c14,-50 40,-97 54,-147l32 -89c18,-37 15,-66 -2,-111l-43 -118 -70 -19c-42,-11 -67,-30 -117,-48 -40,-41 -48,-45 -86,-66l-23 -5 -26 -22c-4,-11 0,-15 -1,-23 5,-14 10,-17 21,-33 12,1 24,1 38,11l37 44 95 59 132 14 55 10c8,-3 14,-12 6,-20 -10,-13 -8,-16 -12,-39 0,-27 3,-38 8,-75 12,-23 17,-30 31,-40 21,-5 39,-7 60,5 11,12 15,24 19,43 0,26 -4,49 -11,74l-18 35 12 24c-1,1 2,8 2,8 23,9 61,15 84,24l56 -76 1 -14 12 -26 -85 -121c-8,-2 -22,-3 -36,-5 -18,-3 -28,-10 -47,-21 -13,-20 -16,-34 -22,-63 -2,-21 1,-45 16,-63 18,-10 27,-11 54,-5 35,20 35,28 50,63 6,25 4,48 -4,85l96 124c19,2 24,0 28,26 -2,12 -2,23 -16,27 -30,33 -55,92 -85,125l-42 14c-6,6 -8,9 -9,16l21 150 106 269c-4,18 -5,26 -8,33l-17 18 -162 66 -19 75c-4,-1 -14,8 -18,7l-15 -15 29 -147 54 -1c14,-3 22,-14 32,-17 5,-7 10,-15 0,-22l-61 -65 -4 4 0 0 -18 22 -63 84 -136 143 -37 108 -6 19z"/>
    <g>
     <ellipse class="fil12 str1" cx="2718" cy="6912" rx="16" ry="17"/>
     <polyline class="fil13 str1" points="2726,6897 2667,6842 2651,6866 2707,6899 "/>
     <polyline class="fil13 str1" points="2651,6866 2644,6884 2703,6906 "/>
     <polyline class="fil13 str1" points="2644,6884 2636,6916 2702,6912 "/>
     <polyline class="fil13 str1" points="2636,6916 2636,6936 2718,6928 "/>
    </g>
   </g>
  </g>
  <path class="fil13" d="M3075 6824l328 691c135,266 -391,328 -530,546 -111,175 -197,333 -244,509 -99,222 -132,344 -272,63 -120,-336 -107,-535 -96,-946 23,-236 24,-403 95,-706 31,-139 17,-277 161,-247l558 90z"/>
  <path class="fil14" d="M4882 7054l-1571 -214c-44,-13 -30,39 -19,56 418,940 96,806 1590,158z"/>
  <g style="clip-path:url(#id1)">
   <g id="_2538357809728">
    <path id="1" class="fil15" style="mask:url(#id2)" d="M3540 7567l237 35 13 -23 9 2 35 -35 11 -7 4 -8 72 -83 34 6c16,-1 24,-2 41,-6 5,-5 12,-11 19,-9l15 -2 0 22 -6 4 8 43 -34 40 -39 -26 -18 105 73 8 40 -28 43 -213 33 -17c14,-41 20,-87 22,-129l56 -57 -67 -17 -48 -3 -3 -41 9 -1 16 21 37 -86 2 -7 -47 -53 -84 -87 -255 -289c-16,-1 -329,-184 -48,-4 85,90 161,217 219,383l13 46 -42 32 -4 -41 -24 -33c-8,-3 -20,-11 -28,-14l-20 -5c-9,-2 -20,-1 -28,0l-30 4c-8,2 -16,5 -26,10l-22 19 -23 32 -11 18c-3,4 -4,5 -8,14 -1,2 -1,6 1,9l-5 25c1,22 -1,45 5,65 4,9 7,19 11,28 -4,-18 -12,-35 -11,-53l15 43 14 26 39 42 14 18 10 6 7 -2 5 9 -88 29 -3 2 -3 -3 -21 -2 -20 -1 -19 15 -3 5 -37 26 -4 -6 -3 7 -41 30 -18 20c-7,10 -13,19 -18,30 0,6 0,10 1,14 0,5 3,11 6,12l22 13 10 8 -5 31 -7 34zm195 -226l0 0m-7 -7c0,0 0,0 0,1l1 2c0,0 0,1 0,1 0,1 0,1 0,2l1 0c-1,1 0,1 0,2 0,0 0,0 0,1l0 0c0,0 0,0 0,0 0,0 1,0 1,0l1 -1c0,0 1,0 1,0 1,0 1,0 1,-1 1,0 1,0 1,0 1,0 1,0 2,-1l8 -2c1,0 2,-1 3,-1l5 -2c1,0 1,0 2,0 1,0 4,-1 4,-1 1,0 1,-1 4,0l3 -1c1,0 3,-1 5,-1l1 0c1,0 5,-1 6,-1l2 -1 4 -1 4 -2c1,0 1,-1 2,-2 1,-2 1,-4 0,-6l-1 -1c0,-1 -1,-4 -4,-3 0,0 0,0 -1,0 0,0 0,0 -1,1 -1,0 -1,0 -3,1 -2,0 -3,1 -5,1 0,1 -1,1 -2,1 -1,0 -2,0 -3,1l-2 1c0,0 0,0 -1,0 -2,0 -1,0 -3,1 -1,0 0,0 -3,0 -1,1 -2,1 -3,1 -1,0 -1,1 -2,1l0 0c-1,0 -2,0 -2,0 -1,0 -1,0 -1,0 -1,0 -1,0 -2,1 -1,0 -1,0 -2,0l-5 1 -3 1c-1,0 -3,1 -4,1 -1,0 -2,1 -3,1 0,0 0,0 0,0 -1,0 -1,1 -2,1 0,0 -1,0 -1,0 -1,0 -3,0 -4,2 0,1 1,1 1,2zm3 -4l0 0m-1 0l0 0"/>
   </g>
  </g>
  <path class="fil13" d="M4882 7054l-1571 -214c-44,-13 -30,39 -19,56 418,940 96,806 1590,158z"/>
  <path class="fil16" d="M4654 4878l232 1852c39,167 37,188 -170,162l-1479 -239c-1106,-179 -1322,88 703,-1375 86,-52 174,-104 265,-156 146,-82 296,-162 449,-244z"/>
  <g style="clip-path:url(#id4)">
   <g id="_2538357808704">
    <g>
     <path id="1" class="fil15" d="M3926 5450c28,-32 97,-4 136,4 -10,-62 -19,-122 25,-184 13,-17 38,-42 68,-52 33,1 37,1 69,14 40,17 51,31 47,61 -4,52 -32,121 -66,176 2,44 30,69 63,97l84 15 16 -91 -25 -34c-14,-2 -18,-16 -56,-37 -39,-54 -32,-110 32,-165 98,-36 141,-36 199,27 36,50 -1,148 -72,174 -3,91 1,126 -23,225l-96 48c-35,122 -42,218 -74,345 66,125 73,165 82,264 104,220 52,131 34,170l-3 132c-1,55 -22,76 -64,96 -119,-13 -158,-36 -358,-39 -36,2 -46,-1 -88,33l-32 123c-27,27 -40,53 -75,-3l12 -120 -313 -57c-53,-3 -75,5 -111,44l-26 82c-32,42 -62,69 -92,-5l41 -217c21,-128 39,-85 100,-81l373 56c124,-215 183,-507 221,-783l-21 -91c-185,181 -386,360 -531,543l-120 -3c-25,-9 -25,-32 9,-58l71 -15c194,-238 369,-456 564,-694zm85 1101c-64,22 97,78 107,27 7,-36 13,-32 16,-56 2,-20 -21,-13 -39,-13 -14,0 -26,7 -37,14 -7,5 -16,11 -31,18 -3,2 -10,7 -16,10zm-8 26l0 2 0 -2z"/>
    </g>
   </g>
  </g>
  <path class="fil13" d="M4654 4878l232 1852c39,167 37,188 -170,162l-1479 -239c-1106,-179 -1322,88 703,-1375 86,-52 174,-104 265,-156 146,-82 296,-162 449,-244z"/>
  <path class="fil17" d="M4876 4846c1606,91 2189,-71 1717,537 -1878,2057 -1255,1821 -1717,-537z"/>
  <g style="clip-path:url(#id5)">
   <g>
    <path id="1" class="fil15" d="M5926 5376c21,-3 43,17 63,-10 7,-20 28,-47 35,-67 18,-24 21,-34 53,-49 17,-9 53,-3 83,22 11,31 11,51 3,87l-19 55c-22,32 -9,13 -31,39 -9,24 -11,28 -7,36 8,33 17,34 29,48 4,39 21,113 40,151 36,-173 1,-324 84,-184 -3,30 -5,60 -8,90 -5,77 -16,154 -25,230 -9,39 -24,111 -60,80l-106 -154c-148,28 -224,61 -393,133 -74,16 -17,18 -171,73 3,-17 -17,-43 -8,-40 9,3 -69,35 -132,25 -56,-9 -132,-12 -26,-92 93,-71 118,-71 224,-83l9 1 -130 -26 8 -72c-94,-87 -119,-101 -255,-158l-187 -81c-37,-15 -65,-27 -110,-46 -17,-44 -78,-59 -54,-158 23,-96 53,-95 104,-124 101,-38 120,-22 172,0 52,29 73,56 90,122 17,34 5,71 -20,109l-80 63c74,9 149,16 217,51l126 76 317 49 123 -87 -69 -71 15 -38c-28,-53 -33,-85 -86,-158 -28,-39 -40,-65 -74,-87 -18,-38 -56,-142 80,-20 59,88 118,177 176,265z"/>
   </g>
  </g>
  <path class="fil13" d="M4876 4846c1606,91 2189,-71 1717,537 -1878,2057 -1255,1821 -1717,-537z"/>
  <path class="fil18" d="M5352 4434l51 287c-655,7 -638,80 -51,-287z"/>
  <path class="fil19" d="M6772 2868l318 22c93,161 165,326 201,504 65,301 43,609 -38,934 -133,518 -68,294 -1654,297l-83 -310c308,-190 599,-400 818,-653 18,-23 36,-45 54,-66 102,-122 198,-225 336,-554 17,-52 27,-72 37,-127 13,-52 5,-22 11,-47z"/>
  <g style="clip-path:url(#id6)">
   <g>
    <path id="1" class="fil20" d="M6131 4461l214 16c59,-56 100,-124 178,-168 60,-45 97,-120 123,-202 -14,-7 -13,-15 -33,-45 -24,-54 0,-83 64,-111 44,-14 59,-1 72,17l18 48 116 18c57,-48 94,-123 135,-204 37,-17 44,-16 53,42l-45 40 -82 129c69,10 129,24 207,30 29,5 37,-4 74,-17 44,-31 4,30 -10,47l-57 42 -15 38c-12,11 -23,31 -31,-2l3 -57 -171 -30c-38,15 -52,41 -77,72 -19,54 -39,105 -69,144l-51 40c-6,25 -12,51 -18,76 20,45 3,117 -19,174 -54,-5 -19,10 -100,45 -19,11 -20,7 -95,27 -97,25 -93,-42 32,-89l-16 -62 -137 85c-93,-36 -179,-44 -279,-56 -44,-11 -46,-2 -79,53 -85,42 -48,-24 -46,-47l20 -65c-1,-44 20,-70 121,-28zm718 -1258c62,8 102,64 89,125 -13,61 -74,104 -136,95 -62,-8 -102,-64 -89,-125 14,-61 74,-104 136,-95z"/>
   </g>
  </g>
  <path class="fil13" d="M6772 2868l318 22c93,161 165,326 201,504 65,301 43,609 -38,934 -133,518 -68,294 -1654,297l-83 -310c308,-190 599,-400 818,-653 18,-23 36,-45 54,-66 102,-122 198,-225 336,-554 17,-52 27,-72 37,-127 13,-52 5,-22 11,-47z"/>
  <path class="fil18" d="M7080 2736c-16,-244 -46,-456 -61,-698 -63,-57 -85,33 -134,315 -17,101 -36,209 -55,311 -35,184 225,73 250,72z"/>
  <path class="fil21" d="M3124 4783l0 0 -123 418 112 -468 11 50zm-91 -396l80 346 11 50 -91 -396zm91 396l-11 -50 -80 -346c-133,86 -272,199 -395,324 -152,156 -279,331 -338,499 -12,23 -23,46 -34,70 -50,112 -86,230 -112,348 -40,178 -59,357 -76,524 -151,777 369,-293 571,-525 134,-155 244,-300 352,-426l112 -468 -80 -346 80 346 11 50zm0 0l-11 -50 -80 -346 91 396zm-11 -50l-112 468 112 -468z"/>
  <g style="clip-path:url(#id7)">
   <g>
    <path id="1" class="fil15" d="M2711 5597c150,-183 123,-92 38,-214 -3,-27 2,-67 -39,-79l7 57 -26 -18 -76 -150c-4,-6 -6,-17 1,-29l-44 -38c-22,-52 -8,37 1,65l13 16 61 129 -26 -18c-9,-9 -19,-23 -37,-17l-82 11c-11,-19 -13,-38 -32,-56 -30,-18 -32,-15 -71,-12 -20,6 -21,10 -29,25 -6,26 4,52 17,68 21,16 39,21 60,21l26 97 96 84c31,32 43,-12 59,-28l83 86z"/>
    <g>
     <path class="fil15" d="M2186 5394l55 31c-27,120 -122,160 69,128l45 73c12,33 13,71 15,97l56 -18 71 101 82 -124 -36 -40 -7 -118 -100 -108 -62 5c3,-21 2,-44 -13,-66 -27,-15 -45,-13 -68,6 -12,9 -9,49 -3,69 -6,-7 -8,-22 -20,-22 -6,-1 -15,5 -21,2 -13,-5 -29,-16 -49,-27l-14 11zm146 93l2 -1 -3 3c0,-1 0,-1 1,-2zm-80 27c2,4 9,4 15,6 7,3 13,0 20,-2l0 0c1,0 1,-1 2,-2 1,0 1,0 2,0 -2,1 -3,1 -4,2l4 -2c4,-1 8,-3 11,-4l0 0 18 -10 10 -12c3,-2 5,-5 6,-6 1,-4 -1,-9 -5,-10 -5,-6 -17,-12 -21,-14 -5,-3 -12,-5 -24,-12 0,0 -9,7 -13,4 -8,-10 -18,34 -22,41 -2,4 -9,14 -2,20l3 1zm210 32l-1 -2 1 2zm45 41c0,-1 0,-2 0,-2l-3 -32c0,-2 -1,-8 -2,-13 2,-5 -3,-10 -8,-9 -2,-1 -3,-1 -4,-1 -3,-3 -9,-4 -14,-3 -3,-1 -6,-1 -8,2 -4,-1 -8,2 -7,8l-1 6 0 0 1 3 0 0c3,12 10,21 17,30 4,6 24,30 29,15 1,-2 1,-3 0,-4z"/>
    </g>
    <path class="fil15" d="M2702 4983c1,-3 0,-5 0,-8 -8,2 -15,3 -23,5 -7,-8 -16,-14 -24,-22 -2,-9 -4,-18 -9,-30 10,-8 18,-16 24,-26 7,-10 2,-19 0,-30 0,-32 3,-42 28,-74 29,-22 36,-28 65,-27 50,3 75,20 103,49l47 20 23 -45 26 10 10 9c27,17 52,12 78,18l51 30 13 21 71 64 10 13 -173 174 -20 -24 -31 42 -1 16 -10 10c-1,12 -8,20 -17,28 -9,7 -18,13 -29,18 -10,-1 -22,-7 -33,-16 -16,-35 -38,-36 -51,-56 -15,-22 -24,-42 -40,-69l-13 -17 -38 11c-5,-4 -10,-6 -15,-11l-18 17 -3 7 -10 10c-13,2 -58,-25 -56,-54l7 -7 2 -1 56 -55zm87 40c4,-1 7,-2 11,-1 4,1 9,2 11,5 1,1 1,1 2,2 0,0 0,1 1,1 2,2 2,2 6,5 2,3 4,6 7,8 1,1 11,12 12,12 0,1 -2,2 6,10 10,10 22,24 33,34 3,3 10,-18 10,-23 3,-7 17,-64 12,-70 -22,-28 29,-97 -28,-27 -1,2 -8,11 -15,14 -14,6 -31,8 -33,5 2,3 0,-2 -5,5 -3,3 -4,3 -7,6l-10 9c-1,0 -21,4 -15,6l2 -1z"/>
   </g>
  </g>
  <path class="fil13" d="M3124 4783l0 0 -123 418 112 -468 11 50zm-91 -396l80 346 11 50 -91 -396zm91 396l-11 -50 -80 -346c-133,86 -272,199 -395,324 -152,156 -279,331 -338,499 -12,23 -23,46 -34,70 -50,112 -86,230 -112,348 -40,178 -59,357 -76,524 -151,777 369,-293 571,-525 134,-155 244,-300 352,-426l112 -468 -80 -346 80 346 11 50zm0 0l-11 -50 -80 -346 91 396zm-11 -50l-112 468 112 -468z"/>
  <path class="fil22" d="M3218 4768c0,0 0,0 0,0 -103,474 -237,621 93,309l-19 -67c-24,-80 -49,-161 -74,-242l0 1zm0 -1l74 242c3,8 21,64 19,67l-19 -67c-24,-80 -49,-161 -74,-242l0 1z"/>
  <path class="fil23" d="M4337 3731c36,196 71,393 106,589 -108,24 -213,47 -283,90 -266,164 -331,227 -491,432 -92,118 -152,320 -183,198l0 0 0 0 -81 -328 -91 -365 -30 -120 30 120 91 365 1 -18 -112 -482 112 482 -112 -482c337,-408 447,-384 885,-485 41,0 100,2 158,4zm-931 963l-1 18 1 -18 80 346 0 0 0 0 0 0 0 0 0 0 -81 -328 1 -18 -112 -482c-5,7 3,60 20,135 47,218 156,626 172,693 0,0 0,0 0,0 0,0 0,0 0,0l0 0 0 0 0 0 -80 -346 -1 18 1 -18z"/>
  <g style="clip-path:url(#id8)">
   <g>
    <polygon id="1" class="fil15" points="3789,4135 3783,4134 3787,4165 3763,4174 3749,4171 3712,4192 3661,4231 3660,4239 3641,4275 3631,4403 3625,4416 3626,4444 3613,4459 3617,4483 3601,4505 3603,4515 3595,4528 3583,4528 3580,4538 3579,4575 3585,4586 3559,4695 3545,4720 3533,4772 3524,4786 3524,4813 3481,4982 3489,4997 3509,4994 3517,4979 3539,4903 3562,4904 3574,4869 3618,4859 3628,4844 3625,4838 3634,4793 3623,4780 3603,4776 3616,4752 3615,4707 3672,4611 3711,4574 3714,4568 3696,4564 3698,4551 3706,4542 3702,4530 3715,4522 3712,4507 3719,4503 3746,4531 3740,4545 3741,4598 3727,4615 3727,4625 3722,4627 3720,4665 3729,4665 3727,4677 3715,4677 3720,4731 3732,4734 3732,4760 3716,4871 4209,4833 4189,4786 4159,4765 4132,4751 4128,4734 4114,4735 4101,4657 4105,4651 4083,4617 4065,4615 4051,4529 4080,4469 4075,4419 4087,4452 4095,4456 4105,4465 4107,4493 4119,4498 4119,4516 4126,4526 4110,4543 4153,4576 4156,4576 4228,4657 4237,4751 4231,4794 4239,4804 4251,4801 4264,4762 4267,4762 4268,4753 4293,4773 4299,4793 4289,4792 4274,4779 4266,4786 4296,4809 4284,4810 4268,4803 4259,4807 4265,4816 4292,4826 4301,4824 4302,4832 4284,4850 4287,4859 4293,4862 4304,4854 4304,4866 4313,4872 4323,4869 4332,4835 4332,4825 4345,4824 4349,4812 4345,4767 4321,4722 4321,4708 4302,4674 4303,4667 4286,4641 4281,4639 4235,4523 4243,4521 4231,4467 4216,4470 4181,4430 4177,4416 4177,4398 4184,4392 4152,4327 4149,4298 4130,4279 4113,4229 4088,4199 4087,4189 4036,4173 4030,4167 4010,4152 4005,4103 3991,3990 3983,3986 3979,3957 3978,3919 3982,3916 3981,3910 3977,3909 3971,3842 3974,3841 3972,3831 3967,3827 3965,3802 3956,3803 3957,3817 3939,3799 3929,3808 3956,3842 3961,3904 3958,3906 3958,3911 3947,3912 3954,3978 3948,3983 3954,4081 3949,4085 3955,4126 3950,4128 3952,4134 3958,4133 3959,4142 3958,4148 3934,4139 3912,4094 3906,4096 3893,4034 3917,4013 3912,3989 3924,3988 3909,3956 3899,3956 3881,3907 3840,3868 3785,3858 3734,3873 3680,3936 3651,3961 3647,3978 3650,4005 3646,4014 3649,4038 3665,4056 3669,4089 3688,4109 3721,4114 3731,4103 3731,4087 3736,4091 3737,4102 3740,4109 3736,4115 3739,4137 3748,4142 3763,4140 3775,4127 3787,4127 "/>
   </g>
  </g>
  <path class="fil13" d="M4337 3731c36,196 71,393 106,589 -108,24 -213,47 -283,90 -266,164 -331,227 -491,432 -92,118 -152,320 -183,198l0 0 0 0 -81 -328 -91 -365 -30 -120 30 120 91 365 1 -18 -112 -482 112 482 -112 -482c337,-408 447,-384 885,-485 41,0 100,2 158,4zm-931 963l-1 18 1 -18 80 346 0 0 0 0 0 0 0 0 0 0 -81 -328 1 -18 -112 -482c-5,7 3,60 20,135 47,218 156,626 172,693 0,0 0,0 0,0 0,0 0,0 0,0l0 0 0 0 0 0 -80 -346 -1 18 1 -18z"/>
  <path class="fil24" d="M4663 4201c146,-36 296,-73 382,-151 219,-143 248,-381 304,-873l-204 -77c-1,3 -1,5 -2,8 -16,39 -35,81 -55,127 -154,272 -152,305 -388,383 -296,26 -190,72 -37,583z"/>
  <g style="clip-path:url(#id9)">
   <g>
    <path id="1" class="fil15" d="M4460 4000l11 -234 211 -96 201 126 -11 227 -219 103 -193 -126zm267 -133l12 -4 51 -22 -20 -34 -1 -1 -3 -2 -13 -12c0,0 -10,-8 -12,-9l0 0 -23 -10 0 0c-11,-1 -17,-8 -29,-9l-59 -1 -28 6 -24 15c-4,3 -17,15 -17,15 -19,24 -23,52 -30,82 -1,10 -3,22 -1,31 1,15 4,15 9,28 2,3 4,7 4,8 0,0 2,5 2,5l5 9 5 7 5 6c1,1 8,8 8,8 4,4 9,7 12,11 0,1 7,5 9,7 0,1 3,3 3,4l6 3 5 4c1,1 5,4 5,4l27 7 58 5 31 -8 10 -5 19 -8c0,-1 7,-5 9,-6 1,0 3,-2 3,-3 3,-3 8,-9 10,-12l5 -6 10 -11 -13 -9c0,0 -49,-30 -55,-32l-4 7c0,0 -5,8 -5,8 -4,4 -22,14 -27,16l-35 -1 -9 -5 -2 -1c0,0 -3,-2 -4,-2l-13 -11c-3,-4 -5,-4 -9,-11 -2,-5 -2,-7 -3,-15 -3,-9 -5,-22 -3,-29l1 -4c0,-5 2,-12 6,-19l10 -14 10 -8c6,-6 11,-6 15,-8l14 -1 32 3c1,1 30,20 31,34zm103 62l16 1 1 -16 17 1 1 -16 -2 0 0 0 -15 -2 1 -16 -17 -1 -1 16 -18 -1 0 1 0 0 -1 15 19 2 -1 16zm-55 -11c0,1 0,2 0,3l0 5 0 0 0 0 17 2 0 -1 0 0 1 -18 18 2 1 -16 -18 -1 0 -17 0 0 1 -1 -1 0 0 0 -17 -2 -1 18 -17 -1 0 0 -1 0 -1 16 18 2 0 9z"/>
   </g>
  </g>
  <path class="fil13" d="M4663 4201c146,-36 296,-73 382,-151 219,-143 248,-381 304,-873l-204 -77c-1,3 -1,5 -2,8 -16,39 -35,81 -55,127 -154,272 -152,305 -388,383 -296,26 -190,72 -37,583z"/>
  <path class="fil22" d="M5182 2978l177 85c0,0 0,0 0,0 31,-1058 -142,-174 -177,-85z"/>
  <path class="fil25" d="M6588 5662c-23,76 -40,720 -70,814 -62,199 -139,249 -277,402 -103,115 -115,147 -282,256 -205,133 -159,109 -453,237 -363,159 -743,250 -1117,416 -52,23 -280,182 -338,222 -218,152 -418,438 -548,728 -111,248 -320,660 -185,686 397,76 977,-426 1069,-453 67,-18 -1401,1185 -1347,593 5,-55 10,-93 15,-143 11,-142 74,-438 185,-686 131,-290 298,-557 548,-728 32,-21 95,-71 165,-118 70,-48 147,-89 173,-104 236,-140 492,-279 778,-369 256,-80 187,-56 487,-165 348,-127 430,-220 522,-287 73,-53 68,-64 278,-272 81,-80 123,-81 220,-272 79,-153 97,-409 177,-757z"/>
  <path class="fil26" d="M4570 7488c-116,196 -272,365 -454,476 370,-243 722,-248 1113,-465 240,-91 394,-179 628,-299 -159,-5 -220,35 -375,0 -60,-11 -40,4 -158,-59 -66,-70 -84,-69 -90,-165 33,-139 304,-231 458,-319 -173,96 -381,72 -552,103 -119,51 -209,103 -300,209 -94,185 -182,351 -270,519z"/>
  <path class="fil27" d="M2269 8283c-22,-217 22,-413 17,-614 -35,37 -134,93 -180,84 -50,-16 -63,-45 -99,-129 -33,-135 14,-221 66,-340 45,-95 9,-220 181,-393 61,-132 14,-107 76,-238 -52,60 -58,119 -115,185 -121,138 0,0 -197,206 -142,116 -204,187 -299,293 -48,94 -53,199 -55,306 40,192 98,275 200,408l306 380 254 354 -155 -502z"/>
  <path class="fil28" d="M1572 7289c-1,-114 0,-175 29,-276 15,-41 24,-70 32,-149 6,-63 0,-140 -19,-204 10,27 36,74 42,138 5,59 7,124 -2,181 -5,45 -13,96 -23,130 -12,39 -67,103 -46,323 3,30 -14,-99 -13,-143z"/>
  <path class="fil29" d="M1936 6178l125 241 66 -655c34,-180 76,-354 156,-519l121 -242 -103 -15c-17,-26 -43,-35 -32,-87 28,-53 69,-75 129,-150 121,-235 30,-229 30,-486 -85,255 -135,309 -184,355 -48,68 -107,125 -144,202 -82,120 -125,229 -188,343 -45,91 -73,157 -102,286 -13,104 19,196 24,299 21,146 53,289 102,428z"/>
 </g>
</svg>
